<svg xmlns="http://www.w3.org/2000/svg" width="300" height="300" viewBox="0 0 300 300">
  <defs>
    <style>
      .cls-1 {
        fill: none;
        stroke: #239d60;
        stroke-width: 50px;
      }

      .cls-2, .cls-3 {
        fill: #239d60;
      }

      .cls-3 {
        fill-rule: evenodd;
      }
    </style>
  </defs>
  <g id="アートボード_1" data-name="アートボード 1">
    <circle id="楕円形_1" data-name="楕円形 1" class="cls-1" cx="150" cy="150" r="70"/>
    <rect id="長方形_1" data-name="長方形 1" class="cls-2" x="125" y="30" width="50" height="40" rx="10" ry="10"/>
    <rect id="長方形_1_のコピー" data-name="長方形 1 のコピー" class="cls-2" x="125" y="230" width="50" height="40" rx="10" ry="10"/>
    <path id="長方形_1_のコピー_2" data-name="長方形 1 のコピー 2" class="cls-3" d="M246.423,77.01l15,25.98a10,10,0,0,1-3.66,13.661l-17.321,10a10,10,0,0,1-13.66-3.661l-15-25.98a10,10,0,0,1,3.66-13.66l17.321-10A10,10,0,0,1,246.423,77.01Z"/>
    <path id="長方形_1_のコピー_3" data-name="長方形 1 のコピー 3" class="cls-3" d="M73.218,177.01l15,25.98a10,10,0,0,1-3.66,13.661l-17.32,10a10,10,0,0,1-13.66-3.661l-15-25.98a10,10,0,0,1,3.66-13.661l17.32-10A10,10,0,0,1,73.218,177.01Z"/>
    <path id="長方形_1_のコピー_4" data-name="長方形 1 のコピー 4" class="cls-3" d="M38.577,102.99l15-25.98a10,10,0,0,1,13.66-3.66l17.32,10a10,10,0,0,1,3.66,13.66l-15,25.98a10,10,0,0,1-13.66,3.661l-17.32-10A10,10,0,0,1,38.577,102.99Z"/>
    <path id="長方形_1_のコピー_5" data-name="長方形 1 のコピー 5" class="cls-3" d="M211.782,202.99l15-25.98a10,10,0,0,1,13.66-3.661l17.321,10a10,10,0,0,1,3.66,13.661l-15,25.98a10,10,0,0,1-13.66,3.661l-17.321-10A10,10,0,0,1,211.782,202.99Z"/>
  </g>
</svg>
